{"accessors" : [{"bufferView" : 0, "byteOffset" : 0, "componentType" : 5123, "count" : 1296, "type" : "SCALAR", "max" : [279], "min" : [0]}, {"bufferView" : 1, "byteOffset" : 0, "componentType" : 5126, "count" : 280, "type" : "VEC3", "max" : [0.15053093433380127, 0.01807049661874771, 0.15999121963977814], "min" : [-0.14898572862148285, -0.06428150087594986, -0.14973130822181702], "name" : "POSITION"}, {"bufferView" : 1, "byteOffset" : 12, "componentType" : 5126, "count" : 280, "type" : "VEC3", "max" : [0.9969126582145691, 0.27466970682144165, 0.9942843317985535], "min" : [-0.9983630776405334, -0.9998654127120972, -0.9988662004470825], "name" : "NORMAL"}, {"bufferView" : 1, "byteOffset" : 24, "componentType" : 5126, "count" : 280, "type" : "VEC2", "max" : [1, 1], "min" : [-6.661338147750939E-16, 0], "name" : "TEXCOORD_0"}, {"bufferView" : 0, "byteOffset" : 2592, "componentType" : 5123, "count" : 10368, "type" : "SCALAR", "max" : [1852], "min" : [0]}, {"bufferView" : 2, "byteOffset" : 0, "componentType" : 5126, "count" : 1853, "type" : "VEC3", "max" : [0.14589858055114746, 0.04205439239740372, 0.15793868899345398], "min" : [-0.14381000399589539, 0.0035415031015872955, -0.14305879175662994], "name" : "POSITION"}, {"bufferView" : 2, "byteOffset" : 12, "componentType" : 5126, "count" : 1853, "type" : "VEC3", "max" : [0.7685942053794861, 0.9999908208847046, 0.7517402768135071], "min" : [-0.7797437906265259, -0.0074162171222269535, -0.8177441358566284], "name" : "NORMAL"}, {"bufferView" : 2, "byteOffset" : 24, "componentType" : 5126, "count" : 1853, "type" : "VEC2", "max" : [1, 0.4166666865348816], "min" : [-6.661338147750939E-16, 0.08333331346511841], "name" : "TEXCOORD_0"}], "asset" : {"generator" : "Aspose.3D 21.6", "version" : "2.0"}, "buffers" : [{"uri" : "data:application/octet-stream;base64,", "byteLength" : 396588}], "bufferViews" : [{"buffer" : 0, "byteOffset" : 0, "byteLength" : 23328, "target" : 34963}, {"buffer" : 0, "byteOffset" : 23332, "byteLength" : 41472, "byteStride" : 32, "target" : 34962}, {"buffer" : 0, "byteOffset" : 64808, "byteLength" : 331776, "byteStride" : 32, "target" : 34962}], "materials" : [{"pbrMetallicRoughness" : {"baseColorFactor" : [0.8000000715255737, 0.5541117787361145, 0.3478672504425049, 1], "metallicFactor" : 0, "roughnessFactor" : 0.14245811104774475}, "emissiveFactor" : [0, 0, 0], "alphaMode" : "OPAQUE", "doubleSided" : true}, {"pbrMetallicRoughness" : {"baseColorFactor" : [0.9999937415122986, 0.130294531583786, 0.7238406538963318, 1], "metallicFactor" : 0, "roughnessFactor" : 0.14245811104774475}, "emissiveFactor" : [0, 0, 0], "alphaMode" : "OPAQUE", "doubleSided" : true}], "meshes" : [{"primitives" : [{"attributes" : {"POSITION" : 1, "NORMAL" : 2, "TEXCOORD_0" : 3}, "indices" : 0, "material" : 0, "mode" : 4}]}, {"primitives" : [{"attributes" : {"POSITION" : 5, "NORMAL" : 6, "TEXCOORD_0" : 7}, "indices" : 4, "material" : 1, "mode" : 4}]}], "nodes" : [{"mesh" : 0, "name" : "donut"}, {"mesh" : 1, "name" : "Icing"}], "scene" : 0, "scenes" : [{"nodes" : [0, 1]}]}